<svg width="30" height="26" viewBox="0 0 30 26" fill="none" xmlns="http://www.w3.org/2000/svg">
<path d="M1.66699 19.6667V19.4664C1.66699 19.0444 1.66699 18.8334 1.69927 18.6279C1.72793 18.4454 1.77547 18.2663 1.84114 18.0936C1.91511 17.8991 2.01979 17.7159 2.22915 17.3495L7.00033 9M1.66699 19.6667C1.66699 22.6122 4.05481 25 7.00033 25C9.94584 25 12.3337 22.6122 12.3337 19.6667M1.66699 19.6667V19.4C1.66699 19.0266 1.66699 18.8399 1.73965 18.6973C1.80357 18.5719 1.90556 18.4699 2.031 18.406C2.17361 18.3333 2.36029 18.3333 2.73366 18.3333H11.267C11.6404 18.3333 11.827 18.3333 11.9697 18.406C12.0951 18.4699 12.1971 18.5719 12.261 18.6973C12.3337 18.8399 12.3337 19.0266 12.3337 19.4V19.6667M7.00033 9L11.7715 17.3495C11.9809 17.7159 12.0855 17.8991 12.1595 18.0936C12.2252 18.2663 12.2727 18.4454 12.3014 18.6279C12.3337 18.8334 12.3337 19.0444 12.3337 19.4664V19.6667M7.00033 9L23.0003 6.33333M17.667 17V16.7997C17.667 16.3778 17.667 16.1668 17.6993 15.9612C17.7279 15.7787 17.7755 15.5996 17.8411 15.427C17.9151 15.2325 18.0198 15.0493 18.2292 14.6829L23.0003 6.33333M17.667 17C17.667 19.9455 20.0548 22.3333 23.0003 22.3333C25.9458 22.3333 28.3337 19.9455 28.3337 17M17.667 17V16.7333C17.667 16.36 17.667 16.1733 17.7397 16.0307C17.8036 15.9052 17.9056 15.8032 18.031 15.7393C18.1736 15.6667 18.3603 15.6667 18.7337 15.6667H27.267C27.6404 15.6667 27.827 15.6667 27.9697 15.7393C28.0951 15.8032 28.1971 15.9052 28.261 16.0307C28.3337 16.1733 28.3337 16.36 28.3337 16.7333V17M23.0003 6.33333L27.7715 14.6829C27.9809 15.0493 28.0855 15.2325 28.1595 15.427C28.2252 15.5996 28.2727 15.7787 28.3014 15.9612C28.3337 16.1668 28.3337 16.3778 28.3337 16.7997V17M15.0003 1V7.66667" stroke="#747883" stroke-width="2" stroke-linecap="round" stroke-linejoin="round"/>
</svg>
