<svg width="30" height="22" viewBox="0 0 30 22" fill="none" xmlns="http://www.w3.org/2000/svg">
<path d="M2.22683 11.9509C2.04525 11.6634 1.95446 11.5196 1.90363 11.2979C1.86546 11.1314 1.86546 10.8687 1.90363 10.7021C1.95446 10.4804 2.04525 10.3366 2.22683 10.0491C3.72737 7.67314 8.19387 1.66669 15.0005 1.66669C21.8072 1.66669 26.2737 7.67314 27.7742 10.0491C27.9558 10.3366 28.0466 10.4804 28.0974 10.7021C28.1356 10.8687 28.1356 11.1314 28.0974 11.2979C28.0466 11.5196 27.9558 11.6634 27.7742 11.9509C26.2737 14.3269 21.8072 20.3334 15.0005 20.3334C8.19387 20.3334 3.72737 14.3269 2.22683 11.9509Z" stroke="#747883" stroke-width="2" stroke-linecap="round" stroke-linejoin="round"/>
<path d="M15.0005 15C17.2097 15 19.0005 13.2092 19.0005 11C19.0005 8.79088 17.2097 7.00002 15.0005 7.00002C12.7914 7.00002 11.0005 8.79088 11.0005 11C11.0005 13.2092 12.7914 15 15.0005 15Z" stroke="#747883" stroke-width="2" stroke-linecap="round" stroke-linejoin="round"/>
</svg>
